PathFileType	4	(X/Y/Z)	s08c0303.trc
DataRate	CameraRate	NumFrames	NumMarkers	Units	OrigDataRate	OrigDataStartFrame	OrigNumFrames
200	200	7	50	mm	200	1750	2000
Frame#	Time	racr			lacr			c7			jug			rlel			rdr			llel			ldr			s2			lic			ric			lasi			rasi			rpsi			lpsi			rgt			lgt			rth1			rth2			rth3			rth4			rlfc			rmfc			rsh1			rsh2			rsh3			rsh4			rlmal			rmmal			rcal			rtoe			rmt5			lth1			lth2			lth4			lth3			llfc			lmfc			llmal			lmmal			lcal			lmt5			lsh1			lsh2			lsh3			lsh4			ltoe			SBIKE			LBIKE			RBIKE			
		X1	Y1	Z1	X2	Y2	Z2	X3	Y3	Z3	X4	Y4	Z4	X5	Y5	Z5	X6	Y6	Z6	X7	Y7	Z7	X8	Y8	Z8	X9	Y9	Z9	X10	Y10	Z10	X11	Y11	Z11	X12	Y12	Z12	X13	Y13	Z13	X14	Y14	Z14	X15	Y15	Z15	X16	Y16	Z16	X17	Y17	Z17	X18	Y18	Z18	X19	Y19	Z19	X20	Y20	Z20	X21	Y21	Z21	X22	Y22	Z22	X23	Y23	Z23	X24	Y24	Z24	X25	Y25	Z25	X26	Y26	Z26	X27	Y27	Z27	X28	Y28	Z28	X29	Y29	Z29	X30	Y30	Z30	X31	Y31	Z31	X32	Y32	Z32	X33	Y33	Z33	X34	Y34	Z34	X35	Y35	Z35	X36	Y36	Z36	X37	Y37	Z37	X38	Y38	Z38	X39	Y39	Z39	X40	Y40	Z40	X41	Y41	Z41	X42	Y42	Z42	X43	Y43	Z43	X44	Y44	Z44	X45	Y45	Z45	X46	Y46	Z46	X47	Y47	Z47	X48	Y48	Z48	X49	Y49	Z49	X50	Y50	Z50	
1750	8.7500	581.022070	1367.468450	-107.522767	566.555123	1363.858093	-411.476882	550.185577	1405.223151	-254.193093	508.436414	1251.632743	-250.121704	601.236699	1116.645231	23.911698	771.483790	884.757697	-57.449150	585.451206	1100.116126	-518.412804	767.272596	890.013720	-428.966774	-35.580895	1217.132106	-224.131604	130.057092	1200.209401	-378.220407	144.701377	1194.202636	-68.862306	142.146408	1154.919384	-337.112643	153.585991	1129.311914	-97.617862	10.076450	1248.623552	-171.682674	3.227435	1259.656412	-265.608718	36.648803	1087.727282	-37.190510	71.720769	1121.756558	-419.679508	135.606278	937.579770	-28.146136	203.318075	879.965555	-29.381520	233.069836	798.601264	-41.986169	233.460855	901.177382	-37.979355	292.201687	700.173001	-59.225329	273.379812	693.621570	-170.438068	201.721627	605.888732	-28.093562	179.532736	519.931557	-46.959770	119.564933	458.943043	-52.044110	206.879611	509.707875	-74.584612	52.065051	362.207268	-59.793838	0.000000	0.000000	-0.000000	-24.526411	379.203719	-107.794450	218.097666	202.884170	-104.042689	125.555689	228.250972	-38.446925	172.252686	1044.591872	-416.452548	257.323993	1024.297814	-412.355788	274.003562	1053.784758	-398.304634	321.884369	962.956116	-416.678433	414.940087	869.851031	-390.981877	416.435459	841.566750	-282.140518	283.239441	470.574995	-402.824374	307.241254	489.854331	-315.646917	210.145727	439.563828	-367.051543	421.888892	398.561274	-424.070554	384.298156	747.730299	-416.811408	374.134438	663.369712	-401.586515	326.616034	589.693942	-407.691050	394.387784	658.978969	-367.954596	499.502745	434.667916	-353.641002	-208.649717	915.440123	-230.846269	-12.661260	79.968207	-426.918448	-12.422763	79.918499	-28.493718	
1751	8.7550	577.502545	1367.307880	-106.527181	564.551867	1364.027347	-412.545175	546.907808	1405.336058	-253.297143	506.489789	1251.383070	-250.021952	599.936591	1116.236509	23.504373	771.395004	884.737069	-57.523673	584.260091	1099.916729	-517.104247	767.116938	889.969757	-428.707337	-38.204253	1215.379879	-224.508932	127.276383	1198.302438	-378.965390	141.831677	1194.113595	-69.092841	139.870567	1152.627169	-337.692878	151.244626	1129.606924	-98.115318	6.628465	1247.433385	-172.278250	0.286147	1257.858853	-266.200624	35.374273	1087.307202	-36.656750	68.476844	1118.595634	-419.280237	137.184198	939.433057	-28.443162	206.277214	883.510087	-29.481581	237.465572	802.665651	-41.351498	235.967426	905.361076	-37.600916	297.552624	705.225307	-58.358582	279.364258	698.426623	-169.272271	205.326166	612.632441	-27.623294	181.664833	527.042199	-46.490629	120.421244	467.217170	-51.817768	208.769396	516.297608	-74.056339	51.093008	372.158202	-59.714584	0.000000	0.000000	-0.000000	-25.255392	390.917849	-107.788408	213.699411	209.575517	-104.094767	121.672830	236.891850	-38.449536	169.171712	1040.464594	-416.507310	253.925041	1019.229995	-412.573701	270.996516	1048.534528	-398.646725	317.698912	956.996877	-416.702200	410.022299	863.135263	-391.035242	411.946042	835.026059	-282.564203	286.902036	460.704499	-403.270700	310.260297	480.148465	-316.367507	214.052756	429.272420	-367.357379	426.120755	389.354203	-424.060518	381.472903	740.484523	-417.355456	373.426868	655.759129	-402.175374	327.477405	581.222384	-408.565524	393.732019	651.822831	-368.568672	503.421578	425.858457	-353.466680	-208.743719	915.275030	-230.105521	-12.675400	79.950094	-426.910155	-12.418744	79.915918	-28.479965	
1752	8.7600	573.910150	1367.183019	-105.628265	561.791095	1363.649831	-411.911557	543.606901	1405.407678	-252.479449	502.992351	1251.517719	-249.229053	598.667340	1115.862741	23.102219	771.339258	884.701044	-57.585203	583.217817	1099.750598	-515.653578	767.007099	889.869641	-428.440526	-40.937328	1213.604723	-224.704480	124.527317	1196.354752	-379.554897	138.954032	1193.943981	-69.339117	137.706923	1150.403867	-338.310088	149.045374	1129.759954	-98.449794	3.523380	1246.321525	-172.731989	-2.479838	1255.998565	-266.790769	34.101690	1086.716855	-36.135425	65.363761	1115.354159	-418.879208	138.771355	941.335667	-28.657160	209.041647	886.982242	-29.348628	241.926071	806.743164	-40.611802	238.195897	909.324130	-38.021846	303.071778	710.601086	-57.299059	285.023966	703.618528	-168.717992	209.221227	619.479179	-27.205026	183.944690	534.315871	-46.021015	121.574918	475.691172	-51.574444	210.917522	523.071332	-73.602690	50.451196	382.334401	-59.626079	0.000000	0.000000	-0.000000	-25.494908	402.652154	-107.875500	209.780924	216.741010	-103.938242	118.288876	245.790782	-38.480537	165.832845	1035.980268	-416.635817	250.317085	1013.442178	-412.279206	267.791641	1042.652954	-398.510071	313.343694	950.684268	-416.790255	404.830155	855.883374	-391.206778	407.224944	828.049873	-282.876761	290.016666	450.700761	-403.705904	312.978169	470.391192	-316.888142	217.772160	418.739986	-367.472527	429.804583	379.837369	-423.961863	378.530769	732.810519	-417.930034	372.645778	647.955277	-403.059601	328.112296	572.306808	-408.840556	392.648426	644.490929	-369.449635	506.900448	416.766083	-353.440154	-208.829925	915.170291	-229.829360	-12.675162	79.959862	-426.892168	-12.427714	79.862172	-28.496475	
1753	8.7650	570.399357	1367.273474	-104.342684	559.039501	1363.344862	-411.333128	540.269910	1405.595148	-251.616177	499.730369	1251.697611	-248.336998	597.368250	1115.514251	22.701148	771.968291	885.061263	-56.876528	582.222372	1099.602192	-514.229656	765.651218	888.609268	-426.594133	-43.446514	1211.727736	-224.977680	121.879504	1194.396808	-379.995534	136.124871	1193.629664	-69.636383	135.661446	1148.332696	-338.998165	146.904704	1129.813904	-98.719464	0.660866	1245.073836	-173.271108	-5.234034	1254.102984	-267.293018	32.938150	1086.231955	-35.631763	62.358738	1112.053879	-418.429211	140.502891	943.636782	-28.227754	211.814045	890.622989	-29.146834	246.298420	810.974197	-39.802839	240.291456	913.354799	-38.855346	308.639435	716.088273	-56.297043	290.849881	708.959459	-167.934669	213.205141	626.564507	-26.958381	186.771447	541.875349	-45.240146	123.089445	484.401957	-51.361484	214.062170	530.661509	-72.269031	50.166573	392.666978	-59.585413	0.000000	0.000000	-0.000000	-25.325250	414.379452	-107.957353	206.380265	223.946729	-103.971877	115.423886	254.942250	-38.477529	155.016571	1033.337079	-422.809098	246.788838	1007.495078	-412.722292	264.774790	1036.513025	-399.157289	308.813980	943.746501	-416.979902	399.334720	848.109120	-391.157227	402.170050	820.667476	-283.423876	292.526733	440.796672	-404.674498	315.218655	460.633306	-317.244632	220.781729	408.485663	-368.132667	432.934504	370.072731	-423.893412	375.152476	724.544541	-417.898525	371.156319	639.629826	-403.449589	328.201955	563.103496	-409.416531	391.239839	636.603998	-369.886684	509.819018	407.437931	-353.320196	-204.274494	918.093574	-229.948399	-12.672463	79.953960	-426.890825	-12.442720	79.877335	-28.450276	
1754	8.7700	566.740865	1367.153628	-103.083787	556.282576	1363.064646	-410.758102	536.888083	1405.673300	-250.835598	496.336746	1251.787970	-247.661125	596.116481	1115.213023	22.302579	771.734900	884.878449	-57.020176	581.441687	1099.494390	-512.721686	766.821101	889.553943	-427.897962	-45.916683	1209.879252	-225.183620	119.489895	1192.645161	-380.600741	133.438237	1193.242502	-69.885012	133.740092	1146.496753	-339.791060	144.772632	1129.789904	-99.176954	-2.314848	1244.323622	-174.074563	-7.953590	1252.226601	-267.791216	31.708233	1085.734211	-35.086492	59.494201	1108.669672	-417.987010	142.035805	945.652802	-27.910303	214.595737	894.340515	-28.840846	250.675253	815.378217	-38.842780	242.470126	917.611201	-38.639339	314.285468	721.807615	-55.499658	296.676805	714.559380	-167.216338	217.415758	633.891225	-26.637363	189.604065	549.515184	-44.738911	124.935763	493.286101	-51.209564	216.476221	537.513204	-72.192953	50.345127	403.081611	-59.605279	71.932820	415.177197	-145.544219	-24.833700	426.140061	-108.078245	203.514636	231.800601	-103.930102	113.115481	264.315760	-38.452582	159.796686	1026.568376	-416.848348	243.239985	1001.096313	-413.128598	261.728227	1029.895961	-399.949266	304.059763	936.182839	-417.181949	393.650863	840.038552	-391.509916	396.276304	812.779715	-285.778617	294.516449	430.515517	-405.096371	315.986312	449.383403	-320.087691	223.198104	397.575065	-368.175442	435.505278	360.130963	-423.825556	371.518520	715.951628	-418.334079	369.382003	630.879797	-403.871614	327.812753	553.663428	-409.925214	389.408260	628.316757	-370.343747	512.226730	397.772494	-353.226838	-204.481846	918.115395	-230.221108	-12.702569	79.916003	-426.881597	-12.446738	79.853634	-28.427480	
1755	8.7750	563.155494	1366.910856	-101.959568	553.468895	1362.705688	-410.094303	533.507852	1405.806513	-250.054120	493.440314	1251.444947	-246.660310	594.885596	1114.834915	21.877226	771.740043	885.073823	-57.378814	580.761431	1099.442003	-511.229357	766.776390	889.346124	-427.590731	-48.148542	1208.028179	-225.616893	116.988545	1190.731413	-380.666968	130.733118	1192.728785	-70.189482	131.973591	1144.335607	-340.091554	142.766592	1129.758538	-99.549897	-5.014936	1242.908915	-174.601955	-10.489944	1250.304932	-268.333929	30.539675	1085.233065	-34.658761	56.769425	1105.101711	-417.489924	143.640039	947.987179	-27.780052	217.260126	898.294684	-28.526201	255.119630	820.033032	-38.009477	244.556027	922.030034	-38.817611	319.641421	727.591013	-55.064683	302.723846	720.867630	-166.630700	221.754510	641.161589	-26.348552	193.904822	558.135432	-43.579509	126.967612	502.217480	-51.069743	218.965368	544.920275	-72.316626	50.874799	413.621329	-59.663195	74.473442	423.447378	-147.426464	-23.922839	437.870594	-108.193728	201.266888	240.045476	-103.952320	111.455145	273.856142	-38.518934	156.623747	1021.356088	-417.208049	239.588373	994.322340	-413.739733	258.863356	1023.040578	-401.508240	299.143311	928.242610	-417.493707	387.959686	831.338016	-392.201885	391.045453	804.023299	-284.598623	296.062022	419.979819	-405.379426	317.203152	439.169269	-320.441777	225.033840	386.856455	-368.307878	437.487774	349.919425	-423.779452	367.550662	706.902675	-418.782824	367.040047	621.876503	-404.484335	327.298741	543.968100	-410.547489	387.112912	619.720692	-370.866332	514.052715	387.874556	-353.161987	-204.625514	917.731150	-231.285911	-12.715965	79.906745	-426.866086	-12.455383	79.798195	-28.455945	
1756	8.7800	559.575408	1366.834678	-100.704717	550.749501	1362.387125	-409.461518	530.179472	1405.938560	-249.325680	490.566935	1251.234387	-245.702273	593.989524	1114.338904	21.274493	771.597861	884.773324	-57.381589	580.194008	1099.428106	-509.672465	766.749924	889.089946	-427.293505	-50.293887	1206.160611	-225.977482	114.955399	1189.012569	-380.932471	128.159964	1192.164632	-70.421802	130.568323	1142.586484	-340.985665	140.853300	1129.726235	-99.873165	-7.439364	1241.681052	-175.299269	-12.917218	1248.403690	-268.961300	29.403409	1084.770690	-34.221994	54.298111	1101.563504	-417.086199	144.946234	950.168053	-27.746824	219.954818	902.368876	-28.103452	259.612871	824.817451	-37.300124	246.615687	926.643832	-38.836501	325.192292	733.527368	-54.562102	308.527917	727.012410	-166.159241	226.390309	648.719154	-25.958816	197.112771	566.179563	-43.399850	129.233288	511.317466	-51.042386	221.923072	552.475653	-72.082657	51.628323	424.162188	-59.820695	75.398268	433.581471	-147.452797	-22.810102	449.494112	-108.423717	199.607627	248.429443	-103.857615	110.139989	283.732404	-38.562493	153.437578	1015.838818	-417.618767	235.851780	987.189294	-414.448389	255.744791	1015.609652	-402.601545	293.979237	919.952517	-417.866546	381.701616	822.609313	-392.680731	384.910248	795.183044	-285.508505	297.045615	409.327336	-405.643135	319.068792	430.414858	-318.780929	226.301425	376.090964	-368.437186	438.909193	339.584149	-423.720939	363.202205	697.438666	-419.226276	364.268131	612.454315	-405.045735	326.119307	533.850086	-410.917734	384.408919	610.667557	-371.072358	515.380918	377.799583	-353.045013	-204.629664	917.960138	-229.718320	-12.729836	79.854585	-426.864902	-12.469515	79.770401	-28.447471	
